<svg xmlns="http://www.w3.org/2000/svg" xmlns:xlink="http://www.w3.org/1999/xlink" width="576" zoomAndPan="magnify" viewBox="0 0 432 431.999984" height="576" preserveAspectRatio="xMidYMid meet" version="1.2"><g id="4a4f6445a8"><path style=" stroke:none;fill-rule:nonzero;fill:#ffd66f;fill-opacity:1;" d="M 280.523438 214.601562 C 280.398438 250.617188 250.554688 280.433594 215.476562 280.433594 C 180.402344 280.433594 147.589844 249.613281 151.847656 214.796875 C 156.402344 177.523438 180.308594 152.628906 215.359375 151.285156 C 256.328125 149.714844 280.644531 179.371094 280.523438 214.601562 Z M 280.523438 214.601562 "/><path style="fill:none;stroke-width:25;stroke-linecap:round;stroke-linejoin:round;stroke:#ffd66f;stroke-opacity:1;stroke-miterlimit:4;" d="M -6.254412 -108.005771 C -6.254412 -108.005771 4.903891 33.63213 -6.258518 107.994727 " transform="matrix(0.288032,0.0336678,-0.0336678,0.288032,230.641718,106.706372)"/><path style="fill:none;stroke-width:25;stroke-linecap:round;stroke-linejoin:round;stroke:#ffd66f;stroke-opacity:1;stroke-miterlimit:4;" d="M -76.365067 -78.257332 C -76.365067 -78.257332 53.961891 77.307146 76.361768 74.485415 " transform="matrix(0.288032,0.0336678,-0.0336678,0.288032,147.704557,130.029599)"/><path style="fill:none;stroke-width:25;stroke-linecap:round;stroke-linejoin:round;stroke:#ffd66f;stroke-opacity:1;stroke-miterlimit:4;" d="M -107.932391 -4.304972 C -81.172954 3.484452 108.006771 -4.361505 108.006771 -4.361505 " transform="matrix(0.288032,0.0336678,-0.0336678,0.288032,106.552382,204.326936)"/><path style="fill:none;stroke-width:25;stroke-linecap:round;stroke-linejoin:round;stroke:#ffd66f;stroke-opacity:1;stroke-miterlimit:4;" d="M -76.361283 76.366014 C -76.361283 76.366014 38.764571 -66.118646 76.366522 -76.372636 " transform="matrix(0.288032,0.0336678,-0.0336678,0.288032,129.69054,284.14149)"/><path style="fill:none;stroke-width:25;stroke-linecap:round;stroke-linejoin:round;stroke:#ffd66f;stroke-opacity:1;stroke-miterlimit:4;" d="M -7.939028 107.996349 C 5.304473 98.311201 6.72111 -103.980606 -7.934922 -108.004149 " transform="matrix(0.288032,0.0336678,-0.0336678,0.288032,205.559406,325.477328)"/><path style="fill:none;stroke-width:25;stroke-linecap:round;stroke-linejoin:round;stroke:#ffd66f;stroke-opacity:1;stroke-miterlimit:4;" d="M 82.392567 76.363832 C 82.392567 76.363832 -79.111226 -64.449235 -70.346083 -76.363972 " transform="matrix(0.288032,0.0336678,-0.0336678,0.288032,282.608863,302.015981)"/><path style="fill:none;stroke-width:25;stroke-linecap:round;stroke-linejoin:round;stroke:#ffd66f;stroke-opacity:1;stroke-miterlimit:4;" d="M 107.994891 -7.36946 C 107.994891 -7.36946 -57.542736 6.541776 -107.930893 -7.31449 " transform="matrix(0.288032,0.0336678,-0.0336678,0.288032,325.16547,230.760128)"/><path style="fill:none;stroke-width:25;stroke-linecap:round;stroke-linejoin:round;stroke:#ffd66f;stroke-opacity:1;stroke-miterlimit:4;" d="M 76.362529 -76.36212 C 76.362529 -76.36212 -43.479503 13.592623 -76.366839 76.363151 " transform="matrix(0.288032,0.0336678,-0.0336678,0.288032,302.422513,147.564377)"/><path style="fill:none;stroke-width:25;stroke-linecap:round;stroke-linejoin:round;stroke:#ffd66f;stroke-opacity:1;stroke-miterlimit:4;" d="M -19.721364 -47.762128 C -19.721364 -47.762128 19.718548 47.762884 19.718548 47.762884 " transform="matrix(0.281332,0.0666752,-0.0666752,0.281332,199.902765,114.982409)"/><path style="fill:none;stroke-width:25;stroke-linecap:round;stroke-linejoin:round;stroke:#ffd66f;stroke-opacity:1;stroke-miterlimit:4;" d="M -47.713763 -19.82593 C -47.721211 0.0033876 47.715343 19.831054 47.715343 19.831054 " transform="matrix(0.281332,0.0666752,-0.0666752,0.281332,133.308542,155.958211)"/><path style="fill:none;stroke-width:25;stroke-linecap:round;stroke-linejoin:round;stroke:#ffd66f;stroke-opacity:1;stroke-miterlimit:4;" d="M -47.762234 19.72634 C -29.364891 19.726043 40.599767 -5.880601 47.759663 -19.726719 " transform="matrix(0.281332,0.0666752,-0.0666752,0.281332,115.193709,232.021623)"/><path style="fill:none;stroke-width:25;stroke-linecap:round;stroke-linejoin:round;stroke:#ffd66f;stroke-opacity:1;stroke-miterlimit:4;" d="M -19.82706 47.718777 C -19.82706 47.718777 -2.243969 -35.453127 19.826809 -47.723475 " transform="matrix(0.281332,0.0666752,-0.0666752,0.281332,156.169801,298.615904)"/><path style="fill:none;stroke-width:25;stroke-linecap:round;stroke-linejoin:round;stroke:#ffd66f;stroke-opacity:1;stroke-miterlimit:4;" d="M 12.381199 47.7672 C 27.069924 39.676232 -27.074975 -47.767843 -27.074975 -47.767843 " transform="matrix(0.281332,0.0666752,-0.0666752,0.281332,234.299315,317.220414)"/><path style="fill:none;stroke-width:25;stroke-linecap:round;stroke-linejoin:round;stroke:#ffd66f;stroke-opacity:1;stroke-miterlimit:4;" d="M 47.717712 11.667041 C 42.201891 27.997678 -47.72454 -27.986827 -47.72454 -27.986827 " transform="matrix(0.281332,0.0666752,-0.0666752,0.281332,298.28307,278.051726)"/><path style="fill:none;stroke-width:25;stroke-linecap:round;stroke-linejoin:round;stroke:#ffd66f;stroke-opacity:1;stroke-miterlimit:4;" d="M 47.766181 -19.72022 C 47.766181 -19.72022 -2.604451 19.723398 -47.758831 19.719692 " transform="matrix(0.281332,0.0666752,-0.0666752,0.281332,316.942308,199.691235)"/><path style="fill:none;stroke-width:25;stroke-linecap:round;stroke-linejoin:round;stroke:#ffd66f;stroke-opacity:1;stroke-miterlimit:4;" d="M 19.827809 -47.725826 C 19.827809 -47.725826 -19.224956 11.292877 -19.82606 47.716426 " transform="matrix(0.281332,0.0666752,-0.0666752,0.281332,275.966237,133.096967)"/></g></svg>